<?xml version="1.0" encoding="UTF-8" standalone="yes"?><svg xmlns="http://www.w3.org/2000/svg" xmlns:xlink="http://www.w3.org/1999/xlink" height="356px" style="width:291px;height:356px;" version="1.1" viewBox="0 0 291 356" width="291px"><defs><filter height="300%" id="f1" width="300%" x="-1" y="-1"><feGaussianBlur result="blurOut" stdDeviation="2.0"/><feColorMatrix in="blurOut" result="blurOut2" type="matrix" values="0 0 0 0 0 0 0 0 0 0 0 0 0 0 0 0 0 0 .4 0"/><feOffset dx="4.0" dy="4.0" in="blurOut2" result="blurOut3"/><feBlend in="SourceGraphic" in2="blurOut3" mode="normal"/></filter></defs><g><ellipse cx="22" cy="162" fill="#FEFECE" filter="url(#f1)" rx="8" ry="8" style="stroke: #A80036; stroke-width: 2.0;"/><path d="M22,170 L22,197 M9,178 L35,178 M22,197 L9,212 M22,197 L35,212 " fill="#FEFECE" filter="url(#f1)" style="stroke: #A80036; stroke-width: 2.0;"/><text fill="#000000" font-family="sans-serif" font-size="14" lengthAdjust="spacingAndGlyphs" textLength="32" x="6" y="231.9951">User</text><ellipse cx="133.1274" cy="193.5236" fill="#FEFECE" filter="url(#f1)" rx="25.6274" ry="14.5236" style="stroke: #A80036; stroke-width: 1.5;"/><text fill="#000000" font-family="sans-serif" font-size="14" lengthAdjust="spacingAndGlyphs" textLength="32" x="117.1274" y="198.1721">Start</text><ellipse cx="162.0624" cy="330.5125" fill="#FEFECE" filter="url(#f1)" rx="80.5624" ry="18.5125" style="stroke: #A80036; stroke-width: 1.5;"/><text fill="#000000" font-family="sans-serif" font-size="14" lengthAdjust="spacingAndGlyphs" textLength="132" x="96.0624" y="335.1609">Use the application</text><ellipse cx="229" cy="18" fill="#FEFECE" filter="url(#f1)" rx="8" ry="8" style="stroke: #A80036; stroke-width: 2.0;"/><path d="M229,26 L229,53 M216,34 L242,34 M229,53 L216,68 M229,53 L242,68 " fill="#FEFECE" filter="url(#f1)" style="stroke: #A80036; stroke-width: 2.0;"/><text fill="#000000" font-family="sans-serif" font-size="14" lengthAdjust="spacingAndGlyphs" textLength="79" x="189.5" y="87.9951">Main Admin</text><path d="M38.043,193.5 C59.448,193.5 80.853,193.5 102.2581,193.5 " fill="none" style="stroke: #A80036; stroke-width: 1.0;"/><polygon fill="#A80036" points="107.406,193.5,98.406,189.5,102.406,193.5,98.406,197.5,107.406,193.5" style="stroke: #A80036; stroke-width: 1.0;"/><path d="M38.0598,209.986 C63.2175,234.245 111.961,281.248 140.244,308.5211 " fill="none" style="stroke: #A80036; stroke-width: 1.0;"/><polygon fill="#A80036" points="143.926,312.0715,140.223,302.9453,140.3264,308.6012,134.6705,308.7046,143.926,312.0715" style="stroke: #A80036; stroke-width: 1.0;"/><text fill="#000000" font-family="sans-serif" font-size="13" lengthAdjust="spacingAndGlyphs" textLength="34" x="113" y="278.0669">Label</text><path d="M219.258,91.069 C204.935,150.709 178.677,260.0539 167.39,307.0551 " fill="none" style="stroke: #A80036; stroke-width: 1.0;"/><polygon fill="#A80036" points="166.217,311.9391,172.2082,304.1221,167.3846,307.0774,164.4294,302.2538,166.217,311.9391" style="stroke: #A80036; stroke-width: 1.0;"/><text fill="#000000" font-family="sans-serif" font-size="13" lengthAdjust="spacingAndGlyphs" textLength="85" x="205" y="198.0669">Another label</text></g></svg>